<svg xmlns="http://www.w3.org/2000/svg" fill="#000000" x="0px" y="0px" viewBox="0 0 100 100"><path transform="scale(-1,1) translate(-100 0)" d="M 35 5 L 35 8 L 35 35 L 35 38 L 41 38 L 41 35 L 41 11 L 81 11 L 81 89 L 41 89 L 41 65 L 41 62 L 35 62 L 35 65 L 35 92 L 35 95 L 38 95 L 84 95 L 87 95 L 87 92 L 87 8 L 87 5 L 84 5 L 38 5 L 35 5 z M 26 29.75 L 23.875 31.875 L 7.875 47.875 L 5.75 50 L 7.875 52.09375 L 23.875 68.09375 L 26 70.21875 L 30.25 66 L 28.125 63.875 L 17.25 53 L 66 53 L 69 53 L 69 47 L 66 47 L 17.25 47 L 28.125 36.09375 L 30.25 34 L 26 29.75 z "/></svg>
