<svg xmlns="http://www.w3.org/2000/svg" xmlns:xlink="http://www.w3.org/1999/xlink" version="1.1" x="0px" y="0px" viewBox="0 0 100 100" enable-background="new 0 0 100 100" xml:space="preserve"><path d="M93.7,88l-5.3-30.6c0.6-2.2,1-4.5,1.2-6.8c0.2,0.1,0.4,0.2,0.7,0.2l0.4,0c0.6,0,1.1-0.5,1.1-1.1l0-5.7  c0-0.6-0.5-1.1-1.1-1.1l-0.4,0c-0.3,0-0.5,0.1-0.7,0.2c-0.8-8.3-4.1-15.8-9.1-21.8c0.2-0.1,0.3-0.1,0.5-0.3l0.3-0.3  c0.4-0.4,0.4-1.2,0-1.6l-4-4c-0.4-0.4-1.2-0.4-1.6,0l-0.3,0.3c-0.1,0.1-0.2,0.3-0.3,0.5c-6.8-5.5-15.5-8.9-24.9-8.9v0  c0,0-1.5,0-2.1,0.1c-8.8,0.4-16.7,3.6-23.1,8.8c-0.1-0.1-0.1-0.3-0.3-0.4l-0.3-0.3c-0.4-0.4-1.2-0.4-1.6,0l-4,4  c-0.4,0.4-0.4,1.2,0,1.6l0.3,0.3c0.1,0.1,0.2,0.2,0.3,0.2c-5.1,6-8.3,13.6-9.1,21.8c-0.2-0.1-0.4-0.2-0.6-0.2l-0.4,0  c-0.6,0-1.1,0.5-1.1,1.1l0,5.7c0,0.6,0.5,1.1,1.1,1.1l0.4,0c0.2,0,0.4-0.1,0.6-0.2c0.2,2.3,0.6,4.6,1.3,6.8L6.3,88  C5.5,88.2,5,88.7,5,89.5v1.9c0,0.8,0.7,1.5,1.5,1.5h1.5c0.8,0,1.5-0.7,1.5-1.5v-1.9c0-0.7-0.4-1.2-1-1.4L13.1,62  c1.4,3.6,3.4,6.8,5.7,9.8c-0.1,0.1-0.2,0.1-0.3,0.2l-0.3,0.3c-0.4,0.4-0.4,1.2,0,1.6l4,4c0.4,0.4,1.2,0.4,1.6,0l0.3-0.3  c0.1-0.1,0.1-0.2,0.2-0.2c7,5.9,15.9,9.4,25.7,9.4c0.6,0,1.3,0,1.9,0c0.9,0,1.9-0.1,2.8-0.2c0,0,0.1,0,0.1,0c8.5-1,16.1-4.6,22-10  c0.1,0.1,0.2,0.3,0.3,0.4l0.3,0.3c0.5,0.4,1.2,0.4,1.6-0.1l3.8-4.2c0.4-0.5,0.4-1.2-0.1-1.6l-0.3-0.3c-0.1-0.1-0.3-0.2-0.4-0.2  c2-2.7,3.7-5.6,4.9-8.8l4.6,26.2c-0.6,0.2-1,0.7-1,1.4v1.9c0,0.8,0.7,1.5,1.5,1.5h1.5c0.8,0,1.5-0.7,1.5-1.5v-1.9  C95,88.7,94.5,88.2,93.7,88z M49,83.3c-1,0-2.1-0.1-3.1-0.2v-8.6H49V83.3z M54.3,83.1c-0.8,0.1-1.7,0.2-2.6,0.2c-0.2,0-0.3,0-0.5,0  v-8.8h3V83.1z M56.6,82.7v-8.2c0-1.3-1-2.3-2.3-2.3h-3V53.6h0.5c1.9,0,3.4-1.5,3.4-3.4v-4.4c0-1.9-1.5-3.4-3.4-3.4h-3.5  c-1.9,0-3.4,1.5-3.4,3.4v4.4c0,1.9,1.5,3.4,3.4,3.4H49v18.6h-3.1c-1.3,0-2.3,1-2.3,2.3v8.2c-16.5-2.9-29.2-16.8-30-34.1  c-0.5-9.7,2.9-19,9.4-26.2c6.5-7.2,15.5-11.4,25.2-11.9c0.6,0,1.2,0,1.8,0c19.4,0,35.4,15.2,36.4,34.7  C87.3,63.6,74.2,79.5,56.6,82.7z"></path></svg>