<svg xmlns="http://www.w3.org/2000/svg" fill="#000000" x="0px" y="0px" viewBox="0 0 100 100"><path d="M 35 5 L 35 8 L 35 35 L 35 38 L 41 38 L 41 35 L 41 11 L 81 11 L 81 89 L 41 89 L 41 65 L 41 62 L 35 62 L 35 65 L 35 92 L 35 95 L 38 95 L 84 95 L 87 95 L 87 92 L 87 8 L 87 5 L 84 5 L 38 5 L 35 5 z M 50 29.75 L 45.75 34 L 47.875 36.09375 L 58.75 47 L 10 47 L 7 47 L 7 53 L 10 53 L 58.75 53 L 47.875 63.875 L 45.75 66 L 50 70.21875 L 52.125 68.09375 L 68.125 52.09375 L 70.25 50 L 68.125 47.875 L 52.125 31.875 L 50 29.75 z " /></svg>
